<svg xmlns="http://www.w3.org/2000/svg" xmlns:xlink="http://www.w3.org/1999/xlink" width="6912" zoomAndPan="magnify" viewBox="0 0 5184 2592.000001" height="3456" preserveAspectRatio="xMidYMid meet" version="1.0"><defs><g/><clipPath id="1ccec298ad"><path d="M 1645.632812 1079.070312 L 2316.625 1079.070312 L 2316.625 1750.0625 L 1645.632812 1750.0625 Z M 1645.632812 1079.070312 " clip-rule="nonzero"/></clipPath></defs><g fill="#ffffff" fill-opacity="1"><g transform="translate(19.578417, 1769.142295)"><g><path d="M 21.792969 -178.71875 C 50.128906 -85 225.578125 16.347656 408.652344 16.347656 C 652.753906 16.347656 839.101562 -107.882812 839.101562 -321.472656 C 839.101562 -690.894531 321.472656 -574.292969 321.472656 -747.5625 C 321.472656 -818.394531 407.5625 -846.730469 477.304688 -846.730469 C 575.382812 -846.730469 662.5625 -796.601562 724.679688 -739.933594 C 761.730469 -812.945312 809.675781 -875.0625 846.730469 -931.730469 C 781.34375 -987.304688 680 -1067.945312 471.859375 -1067.945312 C 257.179688 -1067.945312 42.5 -946.984375 42.5 -741.023438 C 42.5 -367.242188 571.023438 -460.960938 571.023438 -300.769531 C 571.023438 -226.667969 495.832031 -197.242188 415.191406 -197.242188 C 304.039062 -197.242188 202.691406 -272.433594 146.023438 -362.882812 C 114.421875 -298.589844 68.652344 -235.382812 21.792969 -178.71875 Z M 21.792969 -178.71875 "/></g></g></g><g fill="#ffffff" fill-opacity="1"><g transform="translate(888.100703, 1769.142295)"><g><path d="M 321.472656 316.023438 C 296.410156 294.230469 283.332031 235.382812 283.332031 180.898438 L 283.332031 -240.832031 L 367.242188 -26.152344 C 393.398438 0 434.808594 16.347656 484.933594 16.347656 C 657.113281 16.347656 730.125 -199.421875 730.125 -381.410156 C 730.125 -569.933594 654.933594 -762.820312 374.871094 -762.820312 L 21.792969 -762.820312 C 46.859375 -741.023438 59.9375 -682.179688 59.9375 -627.691406 L 59.9375 180.898438 C 59.9375 235.382812 46.859375 294.230469 21.792969 316.023438 Z M 348.71875 -555.769531 C 457.691406 -555.769531 508.910156 -474.039062 508.910156 -361.792969 C 508.910156 -248.460938 472.949219 -190.703125 406.472656 -190.703125 C 344.359375 -190.703125 308.398438 -229.933594 283.332031 -278.972656 L 283.332031 -549.230469 C 304.039062 -554.679688 324.742188 -555.769531 348.71875 -555.769531 Z M 348.71875 -555.769531 "/></g></g></g><g fill="#ffffff" fill-opacity="1"><g transform="translate(1650.959505, 1769.142295)"><g/></g></g><g fill="#ffffff" fill-opacity="1"><g transform="translate(1977.881227, 1769.142295)"><g/></g></g><g fill="#ffffff" fill-opacity="1"><g transform="translate(2304.815424, 1769.142295)"><g><path d="M -43.589844 -657.113281 L -43.589844 -651.664062 C 61.027344 -651.664062 63.203125 -526.34375 63.203125 -495.832031 L 63.203125 -135.128906 C 63.203125 -80.640625 50.128906 -21.792969 25.0625 0 L 324.742188 0 C 299.679688 -21.792969 286.601562 -81.730469 286.601562 -136.21875 L 286.601562 -483.84375 C 286.601562 -543.78125 326.921875 -576.472656 408.652344 -576.472656 C 465.320312 -576.472656 527.433594 -550.320312 544.871094 -519.804688 C 556.859375 -591.730469 576.472656 -673.460938 597.179688 -739.933594 C 583.011719 -758.460938 535.0625 -779.164062 491.472656 -779.164062 C 377.050781 -779.164062 307.308594 -661.472656 286.601562 -565.574219 L 286.601562 -779.164062 C 213.589844 -734.484375 64.292969 -662.5625 -43.589844 -657.113281 Z M -43.589844 -657.113281 "/></g></g></g><g fill="#ffffff" fill-opacity="1"><g transform="translate(2945.582219, 1769.142295)"><g><path d="M 0 -555.769531 L 64.292969 -555.769531 L 64.292969 -259.359375 C 64.292969 -83.910156 148.203125 16.347656 310.578125 16.347656 C 380.320312 16.347656 451.152344 -8.71875 488.203125 -43.589844 C 476.21875 -92.628906 456.601562 -155.832031 450.0625 -221.21875 C 429.359375 -197.242188 404.292969 -184.167969 370.511719 -184.167969 C 316.023438 -184.167969 286.601562 -209.230469 286.601562 -308.398438 L 286.601562 -555.769531 L 451.152344 -555.769531 L 451.152344 -762.820312 L 286.601562 -762.820312 L 286.601562 -988.394531 L 281.152344 -988.394531 C 220.128906 -901.214844 80.640625 -796.601562 0 -762.820312 Z M 0 -555.769531 "/></g></g></g><g fill="#ffffff" fill-opacity="1"><g transform="translate(3466.477608, 1769.142295)"><g><path d="M -43.589844 -657.113281 L -43.589844 -651.664062 C 61.027344 -651.664062 63.203125 -526.34375 63.203125 -495.832031 L 63.203125 -135.128906 C 63.203125 -80.640625 50.128906 -21.792969 25.0625 0 L 324.742188 0 C 299.679688 -21.792969 286.601562 -81.730469 286.601562 -136.21875 L 286.601562 -779.164062 C 213.589844 -734.484375 64.292969 -662.5625 -43.589844 -657.113281 Z M 178.71875 -831.472656 C 259.359375 -831.472656 324.742188 -896.855469 324.742188 -976.40625 C 324.742188 -1057.050781 259.359375 -1122.433594 178.71875 -1122.433594 C 99.167969 -1122.433594 33.78125 -1057.050781 33.78125 -976.40625 C 33.78125 -896.855469 99.167969 -831.472656 178.71875 -831.472656 Z M 178.71875 -831.472656 "/></g></g></g><g fill="#ffffff" fill-opacity="1"><g transform="translate(3813.014512, 1769.142295)"><g><path d="M 316.023438 0 C 290.960938 -21.792969 277.882812 -81.730469 277.882812 -136.21875 L 277.882812 -555.769531 L 460.960938 -555.769531 L 460.960938 -762.820312 L 282.242188 -762.820312 C 300.769531 -861.984375 374.871094 -906.664062 444.613281 -906.664062 C 504.550781 -906.664062 543.78125 -876.152344 560.125 -846.730469 L 612.433594 -1066.855469 C 595 -1084.292969 528.523438 -1106.085938 448.972656 -1106.085938 C 245.191406 -1106.085938 54.488281 -975.316406 54.488281 -677.820312 L 54.488281 -135.128906 C 54.488281 -80.640625 41.410156 -21.792969 16.347656 0 Z M 316.023438 0 "/></g></g></g><g fill="#ffffff" fill-opacity="1"><g transform="translate(4447.242832, 1769.142295)"><g><path d="M 239.742188 1.089844 L 137.308594 317.113281 L 366.152344 317.113281 L 717.050781 -761.730469 L 488.203125 -761.730469 L 356.34375 -356.34375 L 228.84375 -761.730469 L 0 -761.730469 Z M 239.742188 1.089844 "/></g></g></g><g clip-path="url(#1ccec298ad)"><path fill="#ffffff" d="M 1981.101562 1079 C 1796.074219 1079 1645.5625 1229.511719 1645.5625 1414.539062 C 1645.5625 1599.566406 1796.074219 1750.078125 1981.101562 1750.078125 C 2166.125 1750.078125 2316.636719 1599.566406 2316.636719 1414.539062 C 2316.636719 1229.511719 2166.125 1079 1981.101562 1079 Z M 2154.660156 1423.425781 L 2089.316406 1289.101562 L 2153.785156 1224.515625 C 2194.078125 1254.726562 2251.109375 1297.621094 2257.511719 1302.6875 L 2256.246094 1302.6875 L 2256.246094 1423.425781 Z M 1972.582031 1713.859375 L 1858.65625 1646.835938 L 1908.113281 1556.164062 L 2058.507812 1566.753906 L 2083.144531 1665.277344 Z M 1848.800781 1642.714844 L 1748.804688 1617.707031 L 1690.390625 1485.433594 L 1726.976562 1392.273438 L 1831.625 1412.996094 L 1898.855469 1551.007812 Z M 1680.46875 1489.300781 L 1739.34375 1622.496094 L 1737.179688 1628.804688 C 1727.851562 1618.222656 1719.25 1607.074219 1711.378906 1595.367188 C 1703.503906 1583.660156 1696.429688 1571.488281 1690.144531 1558.855469 C 1683.863281 1546.226562 1678.425781 1533.238281 1673.839844 1519.898438 C 1669.253906 1506.554688 1665.550781 1492.972656 1662.738281 1479.144531 Z M 1746.363281 1252.859375 L 1857.042969 1194.148438 L 1917.621094 1276 L 1831.441406 1403.648438 L 1729.601562 1381.960938 Z M 1942.074219 1123.53125 L 2081.371094 1133.847656 L 2146.253906 1217.035156 L 2081.417969 1281.894531 L 1927.152344 1271.050781 L 1865.492188 1187.722656 Z M 2060.464844 1556.394531 L 1908.113281 1545.664062 L 1841.226562 1408.367188 L 1926.671875 1281.734375 L 2078.976562 1292.507812 L 2145.863281 1429.804688 Z M 2266.972656 1303.722656 C 2270.40625 1302.4375 2273.753906 1300.957031 2277.011719 1299.277344 C 2279.316406 1298.125 2281.617188 1296.976562 2283.574219 1295.941406 C 2287.09375 1304.914062 2290.207031 1314.027344 2292.917969 1323.277344 C 2295.628906 1332.53125 2297.921875 1341.882812 2299.796875 1351.339844 C 2301.675781 1360.796875 2303.128906 1370.316406 2304.160156 1379.898438 C 2305.191406 1389.484375 2305.792969 1399.097656 2305.96875 1408.734375 C 2306.144531 1418.375 2305.890625 1428 2305.210938 1437.617188 C 2304.53125 1447.234375 2303.421875 1456.800781 2301.890625 1466.316406 C 2300.359375 1475.835938 2298.410156 1485.265625 2296.039062 1494.609375 C 2293.667969 1503.953125 2290.886719 1513.175781 2287.695312 1522.269531 L 2266.972656 1428.285156 Z M 2279.476562 1286.0625 C 2274.25 1288.929688 2268.875 1291.492188 2263.359375 1293.753906 C 2251.410156 1284.542969 2193.410156 1240.796875 2157.214844 1213.765625 L 2093.414062 1131.980469 L 2125.648438 1123.738281 C 2134.15625 1127.988281 2142.464844 1132.601562 2150.570312 1137.574219 C 2158.675781 1142.550781 2166.550781 1147.867188 2174.195312 1153.53125 C 2181.835938 1159.191406 2189.214844 1165.175781 2196.335938 1171.480469 C 2203.457031 1177.785156 2210.289062 1184.390625 2216.832031 1191.292969 C 2223.375 1198.195312 2229.605469 1205.371094 2235.523438 1212.816406 C 2241.441406 1220.261719 2247.023438 1227.949219 2252.269531 1235.882812 C 2257.515625 1243.816406 2262.40625 1251.960938 2266.941406 1260.324219 C 2271.476562 1268.683594 2275.640625 1277.222656 2279.429688 1285.945312 Z M 2110.40625 1116.625 L 2083.652344 1123.53125 L 1944.261719 1112.917969 L 1937.582031 1092.496094 C 1952.027344 1090.582031 1966.53125 1089.640625 1981.101562 1089.664062 C 1992.191406 1089.648438 2003.25 1090.207031 2014.28125 1091.332031 C 2025.316406 1092.460938 2036.257812 1094.152344 2047.117188 1096.40625 C 2057.976562 1098.664062 2068.6875 1101.46875 2079.257812 1104.828125 C 2089.824219 1108.1875 2100.191406 1112.082031 2110.359375 1116.507812 Z M 1926.921875 1094.3125 L 1934.128906 1116.417969 L 1853.3125 1184.0625 L 1741.644531 1243.328125 L 1715.558594 1227.625 C 1718.636719 1223.253906 1721.816406 1218.964844 1725.105469 1214.75 C 1728.394531 1210.535156 1731.785156 1206.40625 1735.277344 1202.359375 C 1738.769531 1198.3125 1742.359375 1194.355469 1746.046875 1190.484375 C 1749.734375 1186.617188 1753.511719 1182.839844 1757.386719 1179.15625 C 1761.261719 1175.472656 1765.222656 1171.886719 1769.269531 1168.398438 C 1773.320312 1164.910156 1777.453125 1161.523438 1781.671875 1158.238281 C 1785.886719 1154.957031 1790.183594 1151.777344 1794.558594 1148.703125 C 1798.929688 1145.632812 1803.378906 1142.667969 1807.898438 1139.8125 C 1812.417969 1136.960938 1817.003906 1134.21875 1821.65625 1131.59375 C 1826.3125 1128.964844 1831.027344 1126.453125 1835.808594 1124.058594 C 1840.585938 1121.664062 1845.417969 1119.386719 1850.308594 1117.230469 C 1855.199219 1115.074219 1860.140625 1113.039062 1865.132812 1111.125 C 1870.121094 1109.210938 1875.15625 1107.421875 1880.238281 1105.757812 C 1885.316406 1104.089844 1890.433594 1102.550781 1895.585938 1101.140625 C 1900.742188 1099.726562 1905.929688 1098.441406 1911.148438 1097.28125 C 1916.363281 1096.125 1921.609375 1095.097656 1926.878906 1094.199219 Z M 1709.570312 1236.558594 L 1735.75 1252.308594 L 1718.527344 1384.90625 L 1681.964844 1477.996094 L 1660.277344 1465.609375 C 1658.710938 1455.738281 1657.605469 1445.8125 1656.957031 1435.839844 C 1656.308594 1425.867188 1656.121094 1415.882812 1656.394531 1405.894531 C 1656.667969 1395.902344 1657.402344 1385.945312 1658.597656 1376.023438 C 1659.789062 1366.097656 1661.4375 1356.253906 1663.539062 1346.480469 C 1665.644531 1336.710938 1668.191406 1327.058594 1671.1875 1317.523438 C 1674.179688 1307.984375 1677.609375 1298.609375 1681.46875 1289.390625 C 1685.328125 1280.171875 1689.605469 1271.148438 1694.300781 1262.324219 C 1698.992188 1253.5 1704.085938 1244.914062 1709.570312 1236.558594 Z M 1745.28125 1637.878906 L 1748.4375 1628.667969 L 1849.46875 1653.996094 L 1965.765625 1722.402344 L 1960.03125 1738.863281 C 1949.921875 1738.207031 1939.867188 1737.082031 1929.863281 1735.484375 C 1919.859375 1733.882812 1909.953125 1731.820312 1900.140625 1729.292969 C 1890.332031 1726.765625 1880.660156 1723.785156 1871.128906 1720.351562 C 1861.597656 1716.917969 1852.25 1713.042969 1843.082031 1708.734375 C 1833.914062 1704.421875 1824.96875 1699.691406 1816.246094 1694.542969 C 1807.519531 1689.390625 1799.058594 1683.84375 1790.851562 1677.902344 C 1782.648438 1671.957031 1774.742188 1665.644531 1767.128906 1658.957031 C 1759.519531 1652.273438 1752.234375 1645.246094 1745.28125 1637.878906 Z M 1971.128906 1739.1875 L 1976.496094 1723.757812 L 2090.71875 1673.589844 L 2186.457031 1666.015625 C 2179.289062 1671.898438 2171.878906 1677.464844 2164.234375 1682.710938 C 2156.585938 1687.957031 2148.726562 1692.863281 2140.65625 1697.433594 C 2132.585938 1702.003906 2124.335938 1706.222656 2115.902344 1710.082031 C 2107.46875 1713.941406 2098.886719 1717.433594 2090.15625 1720.554688 C 2081.421875 1723.675781 2072.570312 1726.414062 2063.601562 1728.777344 C 2054.632812 1731.136719 2045.578125 1733.105469 2036.441406 1734.6875 C 2027.300781 1736.265625 2018.113281 1737.453125 2008.871094 1738.242188 C 1999.632812 1739.03125 1990.375 1739.421875 1981.101562 1739.417969 C 1977.761719 1739.417969 1974.445312 1739.347656 1971.128906 1739.1875 Z M 2200.0625 1654.269531 L 2093.460938 1662.675781 L 2068.59375 1563.210938 L 2155.765625 1434.0625 L 2257.394531 1434.0625 L 2280.765625 1540.160156 C 2276.195312 1550.992188 2271.054688 1561.542969 2265.34375 1571.816406 C 2259.636719 1582.089844 2253.386719 1592.027344 2246.601562 1601.625 C 2239.820312 1611.222656 2232.539062 1620.429688 2224.757812 1629.238281 C 2216.980469 1638.050781 2208.746094 1646.417969 2200.0625 1654.339844 Z M 2200.0625 1654.269531 " fill-opacity="1" fill-rule="nonzero"/></g><path fill="#ffffff" d="M 1979.074219 1145.152344 C 1991.054688 1147.429688 2003.117188 1149.082031 2015.269531 1150.101562 C 2027.417969 1151.042969 2039.582031 1151.351562 2051.761719 1151.023438 C 2051.941406 1151.035156 2052.113281 1151.011719 2052.285156 1150.957031 C 2052.453125 1150.90625 2052.605469 1150.820312 2052.746094 1150.710938 C 2052.882812 1150.597656 2053 1150.464844 2053.085938 1150.3125 C 2053.175781 1150.160156 2053.234375 1149.992188 2053.261719 1149.816406 C 2053.289062 1149.640625 2053.285156 1149.46875 2053.246094 1149.292969 C 2053.207031 1149.121094 2053.140625 1148.957031 2053.042969 1148.808594 C 2052.945312 1148.660156 2052.820312 1148.535156 2052.675781 1148.433594 C 2052.53125 1148.332031 2052.371094 1148.257812 2052.199219 1148.214844 C 2046.367188 1146.144531 2040.421875 1144.464844 2034.371094 1143.171875 C 2028.316406 1141.875 2022.203125 1140.980469 2016.035156 1140.480469 C 2009.867188 1139.980469 2003.691406 1139.882812 1997.507812 1140.1875 C 1991.324219 1140.492188 1985.1875 1141.195312 1979.097656 1142.296875 C 1978.90625 1142.292969 1978.726562 1142.328125 1978.550781 1142.402344 C 1978.375 1142.472656 1978.21875 1142.574219 1978.085938 1142.707031 C 1977.949219 1142.839844 1977.84375 1142.992188 1977.769531 1143.167969 C 1977.699219 1143.339844 1977.660156 1143.523438 1977.65625 1143.710938 C 1977.65625 1143.902344 1977.691406 1144.085938 1977.761719 1144.257812 C 1977.832031 1144.433594 1977.933594 1144.589844 1978.066406 1144.726562 C 1978.199219 1144.859375 1978.355469 1144.964844 1978.527344 1145.039062 C 1978.703125 1145.113281 1978.886719 1145.148438 1979.074219 1145.152344 Z M 1979.074219 1145.152344 " fill-opacity="1" fill-rule="nonzero"/><path fill="#ffffff" d="M 1997.585938 1159.335938 C 1995.535156 1159.65625 1995.582031 1161.867188 1997.585938 1162.167969 C 2006.796875 1163.480469 2022.660156 1165.621094 2040.664062 1167.140625 C 2058.671875 1168.660156 2074.695312 1169.210938 2083.972656 1169.441406 C 2086.023438 1169.441406 2086.4375 1167.300781 2084.480469 1166.632812 C 2077.535156 1164.214844 2070.464844 1162.242188 2063.269531 1160.714844 C 2056.074219 1159.183594 2048.8125 1158.109375 2041.484375 1157.492188 C 2034.152344 1156.875 2026.816406 1156.71875 2019.464844 1157.023438 C 2012.117188 1157.328125 2004.816406 1158.089844 1997.5625 1159.3125 Z M 1997.585938 1159.335938 " fill-opacity="1" fill-rule="nonzero"/><path fill="#ffffff" d="M 1998.390625 1176.671875 C 1995.859375 1176.925781 1995.835938 1179.136719 1998.390625 1179.503906 C 2009.71875 1181.117188 2029.429688 1183.695312 2051.855469 1185.46875 C 2074.28125 1187.242188 2094.175781 1187.769531 2105.617188 1187.886719 C 2108.148438 1187.886719 2108.472656 1185.722656 2106.007812 1185.054688 C 2088.5 1180.308594 2070.703125 1177.230469 2052.617188 1175.820312 C 2034.53125 1174.410156 2016.472656 1174.695312 1998.4375 1176.671875 Z M 1998.390625 1176.671875 " fill-opacity="1" fill-rule="nonzero"/><path fill="#ffffff" d="M 2106.835938 1202.023438 C 2100.132812 1199.75 2093.324219 1197.871094 2086.40625 1196.382812 C 2079.488281 1194.890625 2072.503906 1193.800781 2065.460938 1193.113281 C 2058.417969 1192.421875 2051.359375 1192.136719 2044.28125 1192.253906 C 2037.207031 1192.375 2030.160156 1192.898438 2023.144531 1193.824219 C 2021.164062 1194.054688 2021.117188 1196.265625 2023.144531 1196.65625 C 2031.960938 1198.339844 2047.203125 1201.007812 2064.585938 1202.734375 C 2081.972656 1204.460938 2097.488281 1204.785156 2106.445312 1204.832031 C 2108.355469 1204.855469 2108.726562 1202.714844 2106.835938 1202.023438 Z M 2106.835938 1202.023438 " fill-opacity="1" fill-rule="nonzero"/><path fill="#ffffff" d="M 2090.097656 1220.601562 C 2090.277344 1220.601562 2090.445312 1220.566406 2090.609375 1220.5 C 2090.773438 1220.433594 2090.921875 1220.339844 2091.050781 1220.21875 C 2091.179688 1220.097656 2091.285156 1219.957031 2091.359375 1219.796875 C 2091.4375 1219.636719 2091.484375 1219.46875 2091.496094 1219.292969 C 2091.511719 1219.113281 2091.492188 1218.941406 2091.445312 1218.773438 C 2091.394531 1218.601562 2091.316406 1218.445312 2091.207031 1218.304688 C 2091.097656 1218.164062 2090.96875 1218.050781 2090.816406 1217.957031 C 2090.667969 1217.863281 2090.503906 1217.800781 2090.328125 1217.769531 C 2078.953125 1214.507812 2067.371094 1212.371094 2055.578125 1211.355469 C 2043.789062 1210.339844 2032.007812 1210.46875 2020.242188 1211.738281 C 2020.0625 1211.738281 2019.890625 1211.769531 2019.726562 1211.835938 C 2019.558594 1211.902344 2019.410156 1211.992188 2019.28125 1212.113281 C 2019.148438 1212.234375 2019.042969 1212.375 2018.964844 1212.535156 C 2018.886719 1212.691406 2018.839844 1212.863281 2018.824219 1213.039062 C 2018.804688 1213.214844 2018.824219 1213.390625 2018.871094 1213.5625 C 2018.921875 1213.734375 2019 1213.890625 2019.109375 1214.03125 C 2019.214844 1214.171875 2019.347656 1214.289062 2019.5 1214.382812 C 2019.648438 1214.476562 2019.8125 1214.539062 2019.988281 1214.570312 C 2031.382812 1217.824219 2042.980469 1219.957031 2054.789062 1220.972656 C 2066.59375 1221.988281 2078.386719 1221.863281 2090.167969 1220.601562 Z M 2090.097656 1220.601562 " fill-opacity="1" fill-rule="nonzero"/><path fill="#ffffff" d="M 2096.0625 1234.949219 C 2084.855469 1231.703125 2073.441406 1229.585938 2061.816406 1228.589844 C 2050.191406 1227.59375 2038.582031 1227.742188 2026.988281 1229.03125 C 2026.808594 1229.03125 2026.636719 1229.0625 2026.472656 1229.128906 C 2026.304688 1229.191406 2026.15625 1229.285156 2026.027344 1229.40625 C 2025.894531 1229.523438 2025.789062 1229.664062 2025.710938 1229.824219 C 2025.632812 1229.984375 2025.585938 1230.152344 2025.570312 1230.332031 C 2025.550781 1230.507812 2025.570312 1230.683594 2025.617188 1230.851562 C 2025.667969 1231.023438 2025.746094 1231.179688 2025.855469 1231.324219 C 2025.960938 1231.464844 2026.09375 1231.582031 2026.246094 1231.675781 C 2026.394531 1231.769531 2026.558594 1231.832031 2026.734375 1231.863281 C 2037.941406 1235.042969 2049.347656 1237.160156 2060.949219 1238.21875 C 2072.566406 1239.167969 2084.171875 1239.023438 2095.761719 1237.78125 C 2096.109375 1237.75 2096.40625 1237.613281 2096.652344 1237.371094 C 2096.902344 1237.125 2097.042969 1236.832031 2097.078125 1236.488281 C 2097.117188 1236.140625 2097.039062 1235.824219 2096.847656 1235.535156 C 2096.65625 1235.246094 2096.394531 1235.050781 2096.0625 1234.949219 Z M 2096.0625 1234.949219 " fill-opacity="1" fill-rule="nonzero"/><path fill="#ffffff" d="M 2084.710938 1250.582031 C 2080.867188 1249.066406 2076.933594 1247.820312 2072.917969 1246.847656 C 2068.898438 1245.878906 2064.835938 1245.1875 2060.722656 1244.777344 C 2056.609375 1244.371094 2052.488281 1244.246094 2048.359375 1244.410156 C 2044.226562 1244.570312 2040.128906 1245.015625 2036.058594 1245.746094 C 2035.785156 1245.859375 2035.558594 1246.035156 2035.382812 1246.277344 C 2035.203125 1246.515625 2035.101562 1246.78125 2035.070312 1247.078125 C 2035.042969 1247.375 2035.09375 1247.65625 2035.21875 1247.925781 C 2035.347656 1248.195312 2035.535156 1248.414062 2035.785156 1248.578125 C 2039.625 1250.09375 2043.554688 1251.339844 2047.570312 1252.308594 C 2051.585938 1253.28125 2055.648438 1253.972656 2059.761719 1254.378906 C 2063.871094 1254.789062 2067.992188 1254.914062 2072.121094 1254.75 C 2076.246094 1254.589844 2080.34375 1254.144531 2084.410156 1253.414062 C 2084.6875 1253.300781 2084.917969 1253.128906 2085.097656 1252.890625 C 2085.277344 1252.652344 2085.382812 1252.382812 2085.414062 1252.085938 C 2085.445312 1251.789062 2085.398438 1251.507812 2085.269531 1251.238281 C 2085.144531 1250.964844 2084.957031 1250.746094 2084.710938 1250.582031 Z M 2084.710938 1250.582031 " fill-opacity="1" fill-rule="nonzero"/><path fill="#ffffff" d="M 2141.8125 1282.5625 C 2148.890625 1284.148438 2156.0625 1284.917969 2163.316406 1284.863281 C 2170.570312 1284.648438 2177.707031 1283.628906 2184.730469 1281.800781 C 2185.765625 1281.527344 2185.882812 1279.316406 2184.890625 1278.96875 C 2181.421875 1277.65625 2177.855469 1276.679688 2174.199219 1276.042969 C 2170.542969 1275.410156 2166.859375 1275.125 2163.148438 1275.195312 C 2159.4375 1275.265625 2155.765625 1275.683594 2152.132812 1276.453125 C 2148.503906 1277.226562 2144.976562 1278.332031 2141.558594 1279.777344 C 2140.570312 1280.121094 2140.777344 1282.332031 2141.8125 1282.5625 Z M 2141.8125 1282.5625 " fill-opacity="1" fill-rule="nonzero"/><path fill="#ffffff" d="M 2177.085938 1306.714844 C 2195.230469 1306.507812 2211.347656 1305.035156 2220.554688 1304.019531 C 2222.582031 1303.789062 2222.699219 1301.605469 2220.554688 1301.1875 C 2206.15625 1298.28125 2191.609375 1296.910156 2176.921875 1297.066406 C 2162.230469 1297.226562 2147.71875 1298.914062 2133.386719 1302.132812 C 2131.359375 1302.570312 2131.519531 1304.78125 2133.546875 1304.964844 C 2142.871094 1305.769531 2158.917969 1306.898438 2177.085938 1306.714844 Z M 2177.085938 1306.714844 " fill-opacity="1" fill-rule="nonzero"/><path fill="#ffffff" d="M 2187.5625 1324.375 C 2200.523438 1323.84375 2213.347656 1322.222656 2226.035156 1319.515625 C 2226.390625 1319.472656 2226.6875 1319.3125 2226.925781 1319.042969 C 2227.164062 1318.773438 2227.28125 1318.460938 2227.28125 1318.101562 C 2227.28125 1317.742188 2227.164062 1317.425781 2226.925781 1317.15625 C 2226.6875 1316.886719 2226.390625 1316.730469 2226.035156 1316.683594 C 2213.179688 1314.890625 2200.265625 1314.238281 2187.296875 1314.726562 C 2174.324219 1315.214844 2161.496094 1316.835938 2148.8125 1319.585938 C 2148.457031 1319.632812 2148.160156 1319.789062 2147.921875 1320.058594 C 2147.683594 1320.328125 2147.566406 1320.640625 2147.566406 1321 C 2147.566406 1321.359375 2147.683594 1321.675781 2147.921875 1321.945312 C 2148.160156 1322.214844 2148.457031 1322.371094 2148.8125 1322.417969 C 2161.671875 1324.171875 2174.589844 1324.824219 2187.5625 1324.375 Z M 2187.5625 1324.375 " fill-opacity="1" fill-rule="nonzero"/><path fill="#ffffff" d="M 2195.460938 1340.398438 C 2205.957031 1339.941406 2216.359375 1338.667969 2226.65625 1336.578125 C 2226.984375 1336.496094 2227.25 1336.320312 2227.457031 1336.054688 C 2227.664062 1335.789062 2227.765625 1335.488281 2227.765625 1335.152344 C 2227.765625 1334.8125 2227.664062 1334.511719 2227.457031 1334.246094 C 2227.25 1333.980469 2226.984375 1333.804688 2226.65625 1333.722656 C 2221.484375 1332.527344 2216.253906 1331.675781 2210.964844 1331.171875 C 2205.679688 1330.667969 2200.382812 1330.511719 2195.078125 1330.707031 C 2189.769531 1330.902344 2184.5 1331.445312 2179.261719 1332.332031 C 2174.027344 1333.222656 2168.875 1334.453125 2163.800781 1336.023438 C 2163.476562 1336.132812 2163.222656 1336.328125 2163.035156 1336.609375 C 2162.847656 1336.894531 2162.765625 1337.203125 2162.792969 1337.542969 C 2162.820312 1337.882812 2162.949219 1338.175781 2163.179688 1338.425781 C 2163.410156 1338.675781 2163.695312 1338.828125 2164.03125 1338.878906 C 2174.46875 1340.210938 2184.941406 1340.71875 2195.460938 1340.398438 Z M 2195.460938 1340.398438 " fill-opacity="1" fill-rule="nonzero"/><path fill="#ffffff" d="M 2232.070312 1356.148438 C 2221.558594 1353.769531 2210.917969 1352.527344 2200.144531 1352.417969 C 2189.371094 1352.308594 2178.707031 1353.339844 2168.152344 1355.503906 C 2167.820312 1355.578125 2167.546875 1355.746094 2167.335938 1356.011719 C 2167.121094 1356.277344 2167.015625 1356.582031 2167.015625 1356.921875 C 2167.015625 1357.261719 2167.121094 1357.5625 2167.335938 1357.828125 C 2167.546875 1358.09375 2167.820312 1358.261719 2168.152344 1358.335938 C 2178.65625 1360.714844 2189.292969 1361.957031 2200.0625 1362.066406 C 2210.835938 1362.175781 2221.496094 1361.148438 2232.046875 1358.980469 C 2232.378906 1358.910156 2232.652344 1358.742188 2232.867188 1358.480469 C 2233.082031 1358.214844 2233.191406 1357.914062 2233.191406 1357.574219 C 2233.195312 1357.234375 2233.09375 1356.929688 2232.882812 1356.664062 C 2232.671875 1356.398438 2232.398438 1356.226562 2232.070312 1356.148438 Z M 2232.070312 1356.148438 " fill-opacity="1" fill-rule="nonzero"/><path fill="#ffffff" d="M 2229.074219 1377.054688 C 2229.394531 1376.980469 2229.664062 1376.816406 2229.875 1376.5625 C 2230.085938 1376.3125 2230.199219 1376.019531 2230.214844 1375.691406 C 2230.230469 1375.363281 2230.144531 1375.0625 2229.960938 1374.789062 C 2229.773438 1374.515625 2229.527344 1374.328125 2229.214844 1374.222656 C 2224.265625 1372.824219 2219.246094 1371.757812 2214.15625 1371.03125 C 2209.066406 1370.300781 2203.949219 1369.914062 2198.808594 1369.871094 C 2193.667969 1369.832031 2188.546875 1370.128906 2183.445312 1370.773438 C 2178.34375 1371.417969 2173.304688 1372.398438 2168.335938 1373.714844 C 2168.019531 1373.808594 2167.765625 1373.984375 2167.566406 1374.246094 C 2167.371094 1374.507812 2167.269531 1374.804688 2167.269531 1375.132812 C 2167.269531 1375.460938 2167.371094 1375.757812 2167.566406 1376.019531 C 2167.765625 1376.28125 2168.019531 1376.457031 2168.335938 1376.546875 C 2178.347656 1378.457031 2188.445312 1379.457031 2198.636719 1379.542969 C 2208.828125 1379.625 2218.941406 1378.796875 2228.984375 1377.054688 Z M 2229.074219 1377.054688 " fill-opacity="1" fill-rule="nonzero"/><path fill="#ffffff" d="M 2231.378906 1389.394531 C 2227.265625 1388.207031 2223.09375 1387.300781 2218.859375 1386.675781 C 2214.628906 1386.050781 2210.371094 1385.710938 2206.09375 1385.65625 C 2201.8125 1385.605469 2197.550781 1385.839844 2193.304688 1386.363281 C 2189.054688 1386.882812 2184.863281 1387.6875 2180.722656 1388.773438 C 2180.449219 1388.902344 2180.230469 1389.097656 2180.070312 1389.351562 C 2179.90625 1389.609375 2179.824219 1389.886719 2179.824219 1390.191406 C 2179.824219 1390.492188 2179.90625 1390.773438 2180.070312 1391.027344 C 2180.230469 1391.285156 2180.449219 1391.476562 2180.722656 1391.605469 C 2184.835938 1392.796875 2189.007812 1393.703125 2193.238281 1394.332031 C 2197.472656 1394.957031 2201.730469 1395.296875 2206.007812 1395.347656 C 2210.289062 1395.402344 2214.550781 1395.167969 2218.796875 1394.644531 C 2223.046875 1394.121094 2227.238281 1393.316406 2231.378906 1392.226562 C 2231.652344 1392.097656 2231.871094 1391.90625 2232.03125 1391.652344 C 2232.195312 1391.394531 2232.273438 1391.117188 2232.273438 1390.8125 C 2232.273438 1390.507812 2232.195312 1390.230469 2232.03125 1389.972656 C 2231.871094 1389.71875 2231.652344 1389.527344 2231.378906 1389.394531 Z M 2231.378906 1389.394531 " fill-opacity="1" fill-rule="nonzero"/><path fill="#ffffff" d="M 2198.566406 1398.582031 C 2194.578125 1398.695312 2190.820312 1399.675781 2187.285156 1401.53125 C 2186.996094 1401.949219 2186.832031 1402.410156 2186.792969 1402.917969 C 2186.757812 1403.425781 2186.851562 1403.90625 2187.078125 1404.363281 C 2187.902344 1404.980469 2188.773438 1405.53125 2189.683594 1406.011719 C 2190.597656 1406.492188 2191.542969 1406.894531 2192.523438 1407.222656 C 2193.5 1407.546875 2194.5 1407.792969 2195.515625 1407.960938 C 2196.535156 1408.125 2197.558594 1408.207031 2198.589844 1408.207031 C 2199.621094 1408.207031 2200.648438 1408.125 2201.664062 1407.960938 C 2202.683594 1407.792969 2203.679688 1407.546875 2204.660156 1407.222656 C 2205.636719 1406.894531 2206.582031 1406.492188 2207.496094 1406.011719 C 2208.410156 1405.53125 2209.277344 1404.980469 2210.101562 1404.363281 C 2210.335938 1403.90625 2210.433594 1403.417969 2210.398438 1402.90625 C 2210.359375 1402.394531 2210.191406 1401.925781 2209.894531 1401.507812 C 2206.34375 1399.667969 2202.566406 1398.695312 2198.566406 1398.582031 Z M 2198.566406 1398.582031 " fill-opacity="1" fill-rule="nonzero"/><path fill="#ffffff" d="M 2289.8125 1383.433594 C 2290.929688 1401.734375 2290.992188 1420.039062 2290 1438.347656 C 2289.882812 1440.949219 2292.046875 1441.363281 2292.808594 1438.832031 C 2295.136719 1431.222656 2296.863281 1423.476562 2297.988281 1415.597656 C 2299.585938 1404.734375 2300.070312 1393.820312 2299.4375 1382.855469 C 2298.738281 1371.933594 2296.957031 1361.1875 2294.097656 1350.621094 C 2292.019531 1342.9375 2289.371094 1335.457031 2286.152344 1328.175781 C 2285.09375 1325.734375 2283 1326.425781 2283.4375 1329.003906 C 2286.597656 1347.023438 2288.722656 1365.167969 2289.8125 1383.433594 Z M 2289.8125 1383.433594 " fill-opacity="1" fill-rule="nonzero"/><path fill="#ffffff" d="M 2168.382812 1454.324219 C 2178.828125 1457 2189.4375 1458.542969 2200.210938 1458.953125 C 2210.984375 1459.363281 2221.679688 1458.636719 2232.296875 1456.765625 C 2232.628906 1456.691406 2232.902344 1456.523438 2233.117188 1456.257812 C 2233.328125 1455.992188 2233.433594 1455.691406 2233.433594 1455.351562 C 2233.433594 1455.011719 2233.328125 1454.707031 2233.117188 1454.441406 C 2232.902344 1454.175781 2232.628906 1454.007812 2232.296875 1453.933594 C 2221.878906 1451.242188 2211.289062 1449.679688 2200.535156 1449.246094 C 2189.78125 1448.816406 2179.101562 1449.527344 2168.496094 1451.378906 C 2168.300781 1451.371094 2168.113281 1451.402344 2167.929688 1451.46875 C 2167.746094 1451.539062 2167.582031 1451.636719 2167.441406 1451.769531 C 2167.296875 1451.902344 2167.183594 1452.058594 2167.101562 1452.234375 C 2167.019531 1452.414062 2166.976562 1452.597656 2166.96875 1452.792969 C 2166.960938 1452.988281 2166.992188 1453.179688 2167.058594 1453.363281 C 2167.125 1453.546875 2167.226562 1453.710938 2167.359375 1453.851562 C 2167.492188 1453.996094 2167.644531 1454.109375 2167.824219 1454.191406 C 2168 1454.273438 2168.1875 1454.316406 2168.382812 1454.324219 Z M 2168.382812 1454.324219 " fill-opacity="1" fill-rule="nonzero"/><path fill="#ffffff" d="M 2159.148438 1474.519531 C 2168.519531 1475.832031 2184.800781 1477.8125 2203.3125 1478.5 C 2221.824219 1479.191406 2238.191406 1478.5 2247.632812 1477.789062 C 2249.726562 1477.648438 2249.933594 1475.484375 2247.863281 1474.957031 C 2233.332031 1471.421875 2218.59375 1469.382812 2203.648438 1468.832031 C 2188.703125 1468.28125 2173.855469 1469.230469 2159.101562 1471.6875 C 2157.03125 1472.101562 2157.078125 1474.21875 2159.148438 1474.519531 Z M 2159.148438 1474.519531 " fill-opacity="1" fill-rule="nonzero"/><path fill="#ffffff" d="M 2151.273438 1493.582031 C 2161.726562 1494.550781 2179.847656 1496.136719 2200.363281 1497.175781 C 2220.878906 1498.210938 2239.066406 1498.488281 2249.566406 1498.578125 C 2251.871094 1498.578125 2252.238281 1496.414062 2249.980469 1495.769531 C 2241.980469 1493.453125 2233.871094 1491.605469 2225.652344 1490.230469 C 2217.4375 1488.851562 2209.171875 1487.949219 2200.851562 1487.527344 C 2192.53125 1487.105469 2184.214844 1487.164062 2175.902344 1487.703125 C 2167.585938 1488.242188 2159.332031 1489.257812 2151.136719 1490.75 C 2148.835938 1491.140625 2148.949219 1493.351562 2151.273438 1493.582031 Z M 2151.273438 1493.582031 " fill-opacity="1" fill-rule="nonzero"/><path fill="#ffffff" d="M 2249.980469 1513.9375 C 2240.933594 1511.671875 2231.785156 1509.914062 2222.542969 1508.671875 C 2213.296875 1507.429688 2204.011719 1506.703125 2194.6875 1506.5 C 2185.359375 1506.292969 2176.054688 1506.609375 2166.761719 1507.445312 C 2157.472656 1508.28125 2148.257812 1509.628906 2139.117188 1511.496094 C 2136.5625 1512.003906 2136.816406 1514.210938 2139.347656 1514.328125 C 2151.089844 1514.8125 2171.445312 1515.664062 2194.46875 1516.167969 C 2217.492188 1516.675781 2237.871094 1516.722656 2249.726562 1516.769531 C 2252.238281 1516.746094 2252.515625 1514.558594 2249.980469 1513.9375 Z M 2249.980469 1513.9375 " fill-opacity="1" fill-rule="nonzero"/><path fill="#ffffff" d="M 2242.980469 1535.257812 C 2233.460938 1532.667969 2223.820312 1530.636719 2214.0625 1529.15625 C 2204.304688 1527.679688 2194.496094 1526.765625 2184.636719 1526.414062 C 2174.773438 1526.066406 2164.925781 1526.285156 2155.085938 1527.070312 C 2145.25 1527.855469 2135.492188 1529.203125 2125.808594 1531.113281 C 2123.09375 1531.640625 2123.300781 1533.828125 2126.039062 1533.945312 L 2184.292969 1536.0625 L 2242.542969 1538.066406 C 2245.285156 1538.160156 2245.652344 1535.972656 2242.980469 1535.257812 Z M 2242.980469 1535.257812 " fill-opacity="1" fill-rule="nonzero"/><path fill="#ffffff" d="M 2124.519531 1550.707031 C 2135.296875 1551.582031 2153.96875 1553.007812 2175.175781 1553.378906 C 2196.378906 1553.746094 2215.078125 1553.214844 2225.828125 1552.777344 C 2228.132812 1552.664062 2228.429688 1550.476562 2226.082031 1549.945312 C 2209.375 1546.152344 2192.457031 1544.078125 2175.328125 1543.730469 C 2158.195312 1543.382812 2141.207031 1544.761719 2124.359375 1547.875 C 2122.011719 1548.289062 2122.125 1550.5 2124.519531 1550.707031 Z M 2124.519531 1550.707031 " fill-opacity="1" fill-rule="nonzero"/><path fill="#ffffff" d="M 2227.003906 1567.261719 C 2218.296875 1565.003906 2209.496094 1563.203125 2200.605469 1561.855469 C 2191.710938 1560.507812 2182.773438 1559.625 2173.789062 1559.203125 C 2164.804688 1558.78125 2155.824219 1558.824219 2146.84375 1559.332031 C 2137.863281 1559.839844 2128.933594 1560.808594 2120.054688 1562.242188 C 2117.566406 1562.632812 2117.636719 1564.84375 2120.054688 1565.074219 C 2131.359375 1566.109375 2150.976562 1567.8125 2173.242188 1568.851562 C 2195.503906 1569.886719 2215.191406 1570.070312 2226.542969 1570.09375 C 2229.167969 1570.09375 2229.445312 1567.90625 2227.003906 1567.261719 Z M 2227.003906 1567.261719 " fill-opacity="1" fill-rule="nonzero"/><path fill="#ffffff" d="M 2167.992188 1579.347656 C 2151.515625 1578.632812 2135.089844 1579.261719 2118.71875 1581.238281 C 2116.414062 1581.511719 2116.414062 1583.722656 2118.71875 1584.09375 C 2134.929688 1586.550781 2151.222656 1588.183594 2167.597656 1588.996094 C 2186.25 1589.847656 2202.917969 1589.363281 2213.511719 1588.8125 C 2214.015625 1588.988281 2214.523438 1588.988281 2215.03125 1588.8125 L 2216.203125 1588.511719 L 2222.28125 1586.902344 L 2215.742188 1585.496094 C 2199.992188 1582.148438 2184.074219 1580.101562 2167.992188 1579.347656 Z M 2167.992188 1579.347656 " fill-opacity="1" fill-rule="nonzero"/><path fill="#ffffff" d="M 2159.703125 1598.089844 C 2147.300781 1597.550781 2134.984375 1598.320312 2122.746094 1600.394531 C 2122.558594 1600.394531 2122.375 1600.429688 2122.203125 1600.503906 C 2122.027344 1600.574219 2121.871094 1600.679688 2121.738281 1600.8125 C 2121.605469 1600.945312 2121.5 1601.101562 2121.429688 1601.273438 C 2121.355469 1601.449219 2121.320312 1601.632812 2121.320312 1601.820312 C 2121.320312 1602.011719 2121.355469 1602.191406 2121.429688 1602.367188 C 2121.5 1602.542969 2121.605469 1602.695312 2121.738281 1602.832031 C 2121.871094 1602.964844 2122.027344 1603.066406 2122.203125 1603.140625 C 2122.375 1603.210938 2122.558594 1603.25 2122.746094 1603.25 C 2134.824219 1605.570312 2147.003906 1607.039062 2159.289062 1607.648438 C 2170.707031 1608.117188 2182.101562 1607.816406 2193.480469 1606.75 C 2193.769531 1606.832031 2194.0625 1606.832031 2194.355469 1606.75 L 2195.597656 1606.449219 L 2201.054688 1604.90625 L 2195.089844 1603.339844 C 2183.476562 1600.371094 2171.679688 1598.621094 2159.703125 1598.089844 Z M 2159.703125 1598.089844 " fill-opacity="1" fill-rule="nonzero"/><path fill="#ffffff" d="M 2172.367188 1620.148438 C 2163.300781 1618.296875 2154.144531 1617.207031 2144.898438 1616.878906 C 2135.644531 1616.65625 2126.433594 1617.175781 2117.269531 1618.445312 C 2116.960938 1618.527344 2116.707031 1618.6875 2116.5 1618.929688 C 2116.296875 1619.171875 2116.179688 1619.449219 2116.148438 1619.765625 C 2116.117188 1620.082031 2116.179688 1620.375 2116.332031 1620.652344 C 2116.488281 1620.929688 2116.707031 1621.136719 2116.992188 1621.277344 C 2125.933594 1624.441406 2135.140625 1626.191406 2144.621094 1626.527344 C 2154.09375 1626.757812 2163.390625 1625.574219 2172.503906 1622.980469 C 2172.789062 1622.855469 2173.015625 1622.65625 2173.179688 1622.390625 C 2173.347656 1622.121094 2173.421875 1621.832031 2173.40625 1621.515625 C 2173.390625 1621.203125 2173.289062 1620.921875 2173.097656 1620.671875 C 2172.90625 1620.421875 2172.664062 1620.246094 2172.367188 1620.148438 Z M 2172.367188 1620.148438 " fill-opacity="1" fill-rule="nonzero"/><path fill="#ffffff" d="M 2146.070312 1634.171875 C 2141.539062 1634.214844 2137.273438 1635.296875 2133.269531 1637.417969 C 2132.671875 1637.714844 2132.648438 1639.925781 2133.269531 1640.25 C 2134.226562 1640.820312 2135.214844 1641.324219 2136.238281 1641.765625 C 2137.261719 1642.207031 2138.308594 1642.578125 2139.382812 1642.882812 C 2140.453125 1643.183594 2141.542969 1643.417969 2142.644531 1643.578125 C 2143.746094 1643.738281 2144.855469 1643.824219 2145.96875 1643.839844 C 2147.082031 1643.855469 2148.191406 1643.796875 2149.296875 1643.667969 C 2150.402344 1643.535156 2151.496094 1643.335938 2152.578125 1643.0625 C 2153.65625 1642.785156 2154.714844 1642.441406 2155.75 1642.03125 C 2156.78125 1641.617188 2157.785156 1641.140625 2158.757812 1640.59375 C 2159.355469 1640.296875 2159.378906 1638.085938 2158.757812 1637.738281 C 2154.816406 1635.53125 2150.585938 1634.34375 2146.070312 1634.171875 Z M 2146.070312 1634.171875 " fill-opacity="1" fill-rule="nonzero"/><path fill="#ffffff" d="M 2138.152344 1681.625 C 2126.222656 1686.757812 2105.410156 1695.140625 2081.394531 1703.289062 C 2057.378906 1711.441406 2035.785156 1717.566406 2023.210938 1720.765625 C 2020.449219 1721.503906 2020.726562 1723.691406 2023.625 1723.574219 C 2032.351562 1723.277344 2041.023438 1722.433594 2049.644531 1721.042969 C 2061.515625 1719.195312 2073.140625 1716.339844 2084.515625 1712.472656 C 2095.890625 1708.605469 2106.84375 1703.789062 2117.382812 1698.019531 C 2125.054688 1693.878906 2132.441406 1689.273438 2139.53125 1684.203125 C 2141.902344 1682.339844 2140.800781 1680.425781 2138.152344 1681.625 Z M 2138.152344 1681.625 " fill-opacity="1" fill-rule="nonzero"/><path fill="#ffffff" d="M 1765.890625 1198.777344 C 1772.175781 1193.113281 1781.0625 1185.652344 1791.882812 1177.386719 C 1802.707031 1169.121094 1815.554688 1160.210938 1829.714844 1151.484375 C 1843.875 1142.757812 1857.664062 1135.367188 1869.914062 1129.519531 C 1882.164062 1123.667969 1892.9375 1119.066406 1900.765625 1116.027344 C 1904.246094 1114.621094 1903.667969 1112.480469 1899.960938 1113.285156 C 1888.761719 1115.640625 1877.792969 1118.800781 1867.058594 1122.773438 C 1852.234375 1128.179688 1838.097656 1135.011719 1824.648438 1143.265625 C 1811.195312 1151.515625 1798.703125 1161.027344 1787.164062 1171.789062 C 1778.769531 1179.5625 1770.984375 1187.902344 1763.816406 1196.820312 C 1761.421875 1199.765625 1763.058594 1201.261719 1765.890625 1198.777344 Z M 1765.890625 1198.777344 " fill-opacity="1" fill-rule="nonzero"/><path fill="#ffffff" d="M 1674.4375 1406.503906 C 1674.6875 1410.117188 1676.898438 1410.117188 1677.289062 1406.503906 C 1678.050781 1398.421875 1679.433594 1387.347656 1681.457031 1374.453125 C 1683.484375 1361.558594 1686.386719 1346.824219 1690.070312 1331.257812 C 1693.753906 1315.695312 1697.945312 1301.328125 1701.949219 1288.847656 C 1705.957031 1276.367188 1709.734375 1265.824219 1712.726562 1258.363281 C 1713.992188 1254.980469 1712.035156 1253.988281 1710.171875 1257.097656 C 1704.503906 1266.480469 1699.476562 1276.199219 1695.089844 1286.246094 C 1689.03125 1300.078125 1684.226562 1314.328125 1680.675781 1329.003906 C 1677.21875 1343.703125 1675.050781 1358.59375 1674.183594 1373.671875 C 1673.554688 1384.621094 1673.640625 1395.566406 1674.4375 1406.503906 Z M 1674.4375 1406.503906 " fill-opacity="1" fill-rule="nonzero"/><path fill="#ffffff" d="M 1900.515625 1708.933594 C 1887.710938 1702.921875 1865.5625 1692.308594 1840.464844 1680.242188 C 1815.371094 1668.179688 1793.289062 1657.449219 1780.601562 1651.210938 C 1777.792969 1649.828125 1776.617188 1651.714844 1779.105469 1653.511719 C 1787.984375 1660.378906 1797.199219 1666.765625 1806.746094 1672.671875 C 1816.296875 1678.578125 1826.125 1683.96875 1836.238281 1688.84375 C 1846.347656 1693.722656 1856.6875 1698.058594 1867.253906 1701.855469 C 1877.816406 1705.648438 1888.550781 1708.882812 1899.457031 1711.554688 C 1902.496094 1712.386719 1903.230469 1710.289062 1900.515625 1708.933594 Z M 1900.515625 1708.933594 " fill-opacity="1" fill-rule="nonzero"/><path fill="#ffffff" d="M 2014.832031 1381.199219 C 2018.277344 1381.335938 2021.710938 1381.1875 2025.132812 1380.75 C 2028.554688 1380.3125 2031.917969 1379.59375 2035.21875 1378.59375 C 2038.519531 1377.59375 2041.714844 1376.328125 2044.804688 1374.796875 C 2047.894531 1373.261719 2050.835938 1371.480469 2053.628906 1369.457031 C 2054.457031 1368.882812 2053.8125 1366.761719 2052.820312 1366.738281 C 2049.375 1366.601562 2045.9375 1366.75 2042.511719 1367.1875 C 2039.089844 1367.625 2035.726562 1368.34375 2032.421875 1369.339844 C 2029.121094 1370.339844 2025.921875 1371.609375 2022.832031 1373.140625 C 2019.738281 1374.675781 2016.796875 1376.457031 2014.003906 1378.484375 C 2013.171875 1379.058594 2013.816406 1381.175781 2014.832031 1381.199219 Z M 2014.832031 1381.199219 " fill-opacity="1" fill-rule="nonzero"/><path fill="#ffffff" d="M 1984.253906 1415.277344 C 1999.890625 1412.199219 2015.230469 1408.03125 2030.269531 1402.769531 C 2045.3125 1397.511719 2059.90625 1391.210938 2074.050781 1383.871094 C 2076.03125 1382.835938 2075.316406 1380.738281 2073.105469 1381.175781 C 2057.46875 1384.238281 2042.125 1388.398438 2027.082031 1393.660156 C 2012.039062 1398.921875 1997.449219 1405.230469 1983.3125 1412.582031 C 1981.308594 1413.617188 1982.042969 1415.714844 1984.253906 1415.277344 Z M 1984.253906 1415.277344 " fill-opacity="1" fill-rule="nonzero"/><path fill="#ffffff" d="M 2074.027344 1407.632812 C 2076.214844 1406.273438 2075.269531 1404.269531 2072.832031 1405.054688 C 2061.734375 1408.644531 2042.554688 1415.046875 2021.1875 1423.289062 C 1999.820312 1431.53125 1981.332031 1439.683594 1970.714844 1444.472656 C 1968.414062 1445.53125 1969.011719 1447.648438 1971.546875 1447.1875 C 1989.726562 1443.914062 2007.4375 1438.949219 2024.671875 1432.296875 C 2041.90625 1425.644531 2058.359375 1417.421875 2074.027344 1407.632812 Z M 2074.027344 1407.632812 " fill-opacity="1" fill-rule="nonzero"/><path fill="#ffffff" d="M 2078.289062 1426.050781 C 2043.378906 1435.503906 2010.214844 1449.1875 1978.796875 1467.105469 C 1976.496094 1468.371094 1977.4375 1470.398438 1979.878906 1469.730469 C 1997.242188 1464.972656 2014.25 1459.179688 2030.902344 1452.34375 C 2047.507812 1445.441406 2063.625 1437.542969 2079.253906 1428.652344 C 2081.578125 1427.410156 2080.726562 1425.359375 2078.289062 1426.050781 Z M 2078.289062 1426.050781 " fill-opacity="1" fill-rule="nonzero"/><path fill="#ffffff" d="M 2065.210938 1454.625 C 2050.84375 1458.484375 2036.859375 1463.425781 2023.253906 1469.445312 C 2009.652344 1475.460938 1996.589844 1482.488281 1984.070312 1490.519531 C 1982.296875 1491.648438 1983.195312 1493.675781 1985.222656 1493.121094 C 1999.5625 1489.210938 2013.539062 1484.269531 2027.148438 1478.292969 C 2040.710938 1472.226562 2053.757812 1465.203125 2066.292969 1457.226562 C 2068.109375 1455.984375 2067.210938 1454.074219 2065.210938 1454.625 Z M 2065.210938 1454.625 " fill-opacity="1" fill-rule="nonzero"/><path fill="#ffffff" d="M 2048.285156 1482.046875 C 2044.074219 1482.738281 2039.941406 1483.742188 2035.882812 1485.0625 C 2031.824219 1486.378906 2027.886719 1488 2024.074219 1489.914062 C 2020.261719 1491.832031 2016.617188 1494.027344 2013.136719 1496.5 C 2009.65625 1498.96875 2006.386719 1501.6875 2003.320312 1504.65625 C 2002.421875 1505.507812 2003.503906 1507.445312 2004.675781 1507.167969 C 2012.90625 1505.164062 2020.816406 1502.292969 2028.414062 1498.554688 C 2035.957031 1494.699219 2042.980469 1490.054688 2049.484375 1484.625 C 2050.40625 1483.867188 2049.484375 1481.839844 2048.285156 1482.046875 Z M 2048.285156 1482.046875 " fill-opacity="1" fill-rule="nonzero"/><path fill="#ffffff" d="M 2042.117188 1507.628906 C 2040.984375 1507.488281 2039.851562 1507.421875 2038.714844 1507.429688 C 2037.574219 1507.433594 2036.441406 1507.511719 2035.316406 1507.664062 C 2034.1875 1507.816406 2033.074219 1508.039062 2031.972656 1508.332031 C 2030.875 1508.625 2029.796875 1508.988281 2028.746094 1509.421875 C 2027.691406 1509.851562 2026.671875 1510.347656 2025.679688 1510.910156 C 2024.691406 1511.472656 2023.742188 1512.097656 2022.832031 1512.78125 C 2021.921875 1513.464844 2021.058594 1514.203125 2020.246094 1515 C 2019.429688 1515.792969 2018.667969 1516.636719 2017.960938 1517.527344 C 2017.503906 1518.035156 2018.355469 1520.082031 2019.023438 1520.152344 C 2020.152344 1520.292969 2021.285156 1520.355469 2022.425781 1520.351562 C 2023.5625 1520.34375 2024.699219 1520.265625 2025.828125 1520.113281 C 2026.957031 1519.960938 2028.070312 1519.738281 2029.171875 1519.445312 C 2030.269531 1519.152344 2031.347656 1518.789062 2032.402344 1518.355469 C 2033.457031 1517.925781 2034.476562 1517.429688 2035.46875 1516.867188 C 2036.457031 1516.304688 2037.410156 1515.679688 2038.320312 1514.996094 C 2039.230469 1514.3125 2040.09375 1513.574219 2040.910156 1512.78125 C 2041.726562 1511.988281 2042.488281 1511.144531 2043.199219 1510.253906 C 2043.636719 1509.722656 2042.785156 1507.695312 2042.117188 1507.628906 Z M 2042.117188 1507.628906 " fill-opacity="1" fill-rule="nonzero"/><path fill="#ffffff" d="M 1994.730469 1689.335938 C 1992.605469 1688.304688 1990.386719 1687.550781 1988.074219 1687.066406 C 1985.765625 1686.582031 1983.429688 1686.390625 1981.066406 1686.484375 C 1978.707031 1686.578125 1976.394531 1686.957031 1974.128906 1687.625 C 1971.863281 1688.289062 1969.710938 1689.222656 1967.675781 1690.421875 C 1967.054688 1690.765625 1967.148438 1692.976562 1967.792969 1693.273438 C 1969.917969 1694.308594 1972.136719 1695.066406 1974.449219 1695.550781 C 1976.761719 1696.035156 1979.097656 1696.226562 1981.457031 1696.128906 C 1983.820312 1696.035156 1986.132812 1695.652344 1988.398438 1694.980469 C 1990.664062 1694.308594 1992.8125 1693.375 1994.847656 1692.167969 C 1995.46875 1691.847656 1995.375 1689.636719 1994.730469 1689.335938 Z M 1994.730469 1689.335938 " fill-opacity="1" fill-rule="nonzero"/><path fill="#ffffff" d="M 2025.03125 1675.5 C 2015.871094 1673.746094 2006.632812 1672.832031 1997.304688 1672.761719 C 1987.980469 1672.6875 1978.726562 1673.453125 1969.542969 1675.0625 C 1969.238281 1675.152344 1968.992188 1675.320312 1968.792969 1675.566406 C 1968.597656 1675.8125 1968.484375 1676.09375 1968.464844 1676.40625 C 1968.441406 1676.722656 1968.507812 1677.015625 1968.667969 1677.285156 C 1968.828125 1677.558594 1969.050781 1677.761719 1969.335938 1677.894531 C 1973.839844 1679.359375 1978.429688 1680.472656 1983.109375 1681.234375 C 1987.785156 1681.992188 1992.492188 1682.394531 1997.230469 1682.429688 C 2001.96875 1682.46875 2006.679688 1682.140625 2011.367188 1681.453125 C 2016.054688 1680.769531 2020.664062 1679.726562 2025.191406 1678.332031 C 2025.480469 1678.203125 2025.703125 1678.003906 2025.867188 1677.734375 C 2026.03125 1677.464844 2026.101562 1677.175781 2026.085938 1676.859375 C 2026.066406 1676.546875 2025.960938 1676.265625 2025.769531 1676.015625 C 2025.578125 1675.769531 2025.332031 1675.597656 2025.03125 1675.5 Z M 2025.03125 1675.5 " fill-opacity="1" fill-rule="nonzero"/><path fill="#ffffff" d="M 2051.714844 1654.410156 C 2036.972656 1652.519531 2022.167969 1651.769531 2007.304688 1652.152344 C 1992.445312 1652.539062 1977.699219 1654.058594 1963.070312 1656.710938 C 1961 1657.082031 1961.070312 1659.289062 1963.070312 1659.542969 C 1977.820312 1661.398438 1992.625 1662.164062 2007.488281 1661.847656 C 2022.34375 1661.410156 2037.085938 1659.875 2051.714844 1657.242188 C 2053.859375 1656.875 2053.789062 1654.664062 2051.714844 1654.410156 Z M 2051.714844 1654.410156 " fill-opacity="1" fill-rule="nonzero"/><path fill="#ffffff" d="M 1994.316406 1638.796875 C 2004.019531 1640.636719 2013.808594 1641.332031 2023.675781 1640.894531 C 2033.542969 1640.453125 2043.226562 1638.890625 2052.730469 1636.195312 C 2053.027344 1636.082031 2053.265625 1635.890625 2053.441406 1635.621094 C 2053.617188 1635.355469 2053.699219 1635.058594 2053.6875 1634.738281 C 2053.675781 1634.417969 2053.570312 1634.132812 2053.371094 1633.878906 C 2053.175781 1633.628906 2052.921875 1633.457031 2052.613281 1633.363281 C 2042.90625 1631.515625 2033.117188 1630.8125 2023.246094 1631.246094 C 2013.375 1631.683594 2003.683594 1633.246094 1994.179688 1635.945312 C 1993.871094 1636.054688 1993.625 1636.25 1993.445312 1636.523438 C 1993.261719 1636.792969 1993.179688 1637.09375 1993.195312 1637.421875 C 1993.210938 1637.75 1993.324219 1638.039062 1993.53125 1638.292969 C 1993.738281 1638.546875 1994 1638.714844 1994.316406 1638.796875 Z M 1994.316406 1638.796875 " fill-opacity="1" fill-rule="nonzero"/><path fill="#ffffff" d="M 2009.859375 1619.734375 C 2016.859375 1621.546875 2023.960938 1622.085938 2031.15625 1621.347656 C 2038.332031 1620.476562 2045.140625 1618.398438 2051.578125 1615.105469 C 2052.5 1614.644531 2052.132812 1612.457031 2051.117188 1612.320312 C 2044.128906 1611.160156 2037.117188 1610.972656 2030.078125 1611.753906 C 2023.039062 1612.535156 2016.234375 1614.261719 2009.671875 1616.925781 C 2008.730469 1617.269531 2008.867188 1619.457031 2009.859375 1619.734375 Z M 2009.859375 1619.734375 " fill-opacity="1" fill-rule="nonzero"/><path fill="#ffffff" d="M 2024.339844 1599.449219 C 2028.113281 1600.851562 2032.011719 1601.511719 2036.035156 1601.429688 C 2040.074219 1601.085938 2043.914062 1600.019531 2047.550781 1598.230469 C 2048.101562 1597.953125 2048.332031 1595.765625 2047.78125 1595.398438 C 2046.90625 1594.761719 2045.980469 1594.203125 2045.011719 1593.722656 C 2044.039062 1593.242188 2043.035156 1592.847656 2041.996094 1592.542969 C 2040.960938 1592.234375 2039.902344 1592.015625 2038.828125 1591.886719 C 2037.753906 1591.761719 2036.675781 1591.726562 2035.59375 1591.785156 C 2034.511719 1591.839844 2033.445312 1591.988281 2032.386719 1592.230469 C 2031.332031 1592.46875 2030.304688 1592.796875 2029.304688 1593.214844 C 2028.304688 1593.628906 2027.347656 1594.125 2026.433594 1594.707031 C 2025.519531 1595.285156 2024.660156 1595.9375 2023.855469 1596.664062 C 2023.304688 1597.078125 2023.742188 1599.242188 2024.339844 1599.449219 Z M 2024.339844 1599.449219 " fill-opacity="1" fill-rule="nonzero"/><path fill="#ffffff" d="M 2133.453125 1141.007812 C 2145.863281 1153.464844 2167.277344 1175.335938 2191.292969 1200.433594 C 2215.304688 1225.53125 2236.210938 1247.886719 2248.1875 1260.828125 C 2250.832031 1263.660156 2252.582031 1262.324219 2250.488281 1259.054688 C 2242.800781 1247.40625 2234.601562 1236.132812 2225.894531 1225.226562 C 2217.191406 1214.316406 2208.011719 1203.824219 2198.359375 1193.746094 C 2188.707031 1183.667969 2178.621094 1174.042969 2168.101562 1164.875 C 2157.578125 1155.703125 2146.667969 1147.027344 2135.363281 1138.84375 C 2132.164062 1136.539062 2130.761719 1138.246094 2133.453125 1141.007812 Z M 2133.453125 1141.007812 " fill-opacity="1" fill-rule="nonzero"/></svg>