<svg xmlns="http://www.w3.org/2000/svg" xmlns:xlink="http://www.w3.org/1999/xlink" width="500" zoomAndPan="magnify" viewBox="0 0 375 374.999991" height="500" preserveAspectRatio="xMidYMid meet" version="1.0"><defs><clipPath id="58fb638a84"><path d="M 22.65625 58.097656 L 352.65625 58.097656 L 352.65625 316.847656 L 22.65625 316.847656 Z M 22.65625 58.097656 " clip-rule="nonzero"/></clipPath></defs><g clip-path="url(#58fb638a84)"><path fill="#ffffff" d="M 187.496094 58.097656 C 139.523438 58.097656 97.066406 63.058594 71.242188 66.917969 C 50.101562 70.042969 33.285156 86.585938 29.425781 107.816406 C 26.117188 126.378906 22.808594 153.492188 22.808594 187.496094 C 22.808594 221.5 26.117188 248.609375 29.425781 267.175781 C 33.285156 288.402344 50.101562 304.855469 71.242188 308.070312 C 97.15625 311.929688 139.800781 316.894531 187.496094 316.894531 C 235.195312 316.894531 277.746094 311.929688 303.660156 308.070312 L 303.753906 308.070312 C 324.890625 304.945312 341.707031 288.402344 345.570312 267.175781 C 348.878906 248.519531 352.1875 221.40625 352.1875 187.496094 C 352.1875 153.492188 348.878906 126.378906 345.476562 107.816406 C 341.707031 86.585938 324.890625 70.042969 303.753906 66.917969 C 277.929688 63.058594 235.46875 58.097656 187.496094 58.097656 Z M 187.496094 81.625 C 233.816406 81.625 275.261719 86.402344 300.261719 90.171875 C 311.289062 91.824219 320.203125 100.464844 322.316406 111.953125 C 325.441406 129.320312 328.660156 155.054688 328.660156 187.496094 C 328.660156 219.9375 325.441406 245.667969 322.410156 262.945312 C 320.296875 274.527344 311.382812 283.164062 300.261719 284.820312 C 275.078125 288.496094 233.539062 293.367188 187.496094 293.367188 C 141.453125 293.367188 99.820312 288.496094 74.734375 284.820312 C 63.703125 283.164062 54.699219 274.527344 52.585938 262.945312 C 49.550781 245.578125 46.335938 219.9375 46.335938 187.496094 C 46.335938 154.960938 49.550781 129.320312 52.585938 111.953125 C 54.699219 100.464844 63.613281 91.824219 74.640625 90.261719 L 74.734375 90.261719 C 99.730469 86.496094 141.179688 81.625 187.496094 81.625 Z M 140.441406 128.675781 L 140.441406 246.3125 L 258.078125 187.496094 Z M 140.441406 128.675781 " fill-opacity="1" fill-rule="nonzero"/></g></svg>